<svg xmlns="http://www.w3.org/2000/svg" xmlns:xlink="http://www.w3.org/1999/xlink" viewBox="0 0 780 783"><defs><linearGradient x1="50%" y1="-88.262%" x2="50%" y2="175.79%" id="b"><stop stop-color="#FFC58E" offset="0%"/><stop stop-color="#FF911F" offset="100%"/></linearGradient><linearGradient x1="-19.68%" y1="-191.899%" x2="-19.68%" y2="397.438%" id="e"><stop stop-color="#FF4D4F" offset="0%"/><stop stop-color="#990708" offset="100%"/></linearGradient><linearGradient x1="-16.274%" y1="-268.848%" x2="-16.274%" y2="213.872%" id="h"><stop stop-color="#0F5DD7" offset="0%"/><stop stop-color="#055DBF" offset="100%"/></linearGradient><path d="M509.201 341.584c31.66 25.468 31.631 73.752-.056 99.184l-406.008 325.89c-41.55 33.34-103.14 3.713-103.14-49.61V64.554c0-53.359 61.655-82.979 103.19-49.568L509.2 341.584z" id="a"/><path d="M332.837 54.137v192.53a42.632 42.632 0 01-9.699 27.068c-14.938 18.14-41.698 20.691-59.821 5.81l-247.64-203.3C-2.447 61.366-5.066 34.58 9.8 16.44 18.232 6.164 30.402.849 42.65.849L279.67.92c29.38 0 53.167 23.81 53.167 53.217" id="d"/><path d="M332.837 235.302V42.772a42.632 42.632 0 00-9.699-27.068C308.2-2.436 281.44-4.987 263.317 9.894l-247.64 203.3C-2.447 228.066-5.066 254.86 9.8 273c8.431 10.275 20.601 15.59 32.849 15.59l237.02-.071c29.38 0 53.167-23.81 53.167-53.217" id="g"/></defs><g fill="none" fill-rule="evenodd"><g transform="translate(0 .411)"><mask id="c" fill="#fff"><use xlink:href="#a"/></mask><use fill="url(#b)" fill-rule="nonzero" xlink:href="#a"/><path d="M509.201 341.324c31.66 25.467 31.631 73.752-.056 99.184l-406.008 325.89c-41.55 33.34-103.14 3.713-103.14-49.61V64.293c0-53.358 61.655-82.978 103.19-49.567L509.2 341.324z" fill="#FFD259" fill-rule="nonzero" mask="url(#c)"/></g><g transform="translate(446.006 .411)"><mask id="f" fill="#fff"><use xlink:href="#d"/></mask><use fill="url(#e)" fill-rule="nonzero" xlink:href="#d"/><path d="M332.837 53.876v192.53a42.632 42.632 0 01-9.699 27.069c-14.938 18.14-41.698 20.69-59.821 5.81l-247.64-203.3C-2.447 61.105-5.066 34.32 9.8 16.178 18.232 5.904 30.402.59 42.65.59l237.02.07c29.38 0 53.167 23.81 53.167 53.217" fill="#FE6163" fill-rule="nonzero" mask="url(#f)"/></g><g transform="translate(446.006 492.557)"><mask id="i" fill="#fff"><use xlink:href="#g"/></mask><use fill="url(#h)" xlink:href="#g"/><path d="M332.837 235.042V42.512a42.632 42.632 0 00-9.699-27.069C308.2-2.697 281.44-5.248 263.317 9.633l-247.64 203.3C-2.447 227.807-5.066 254.599 9.8 272.74c8.431 10.274 20.601 15.589 32.849 15.589l237.02-.07c29.38 0 53.167-23.81 53.167-53.217" fill="#2085FF" mask="url(#i)"/></g></g></svg>